<?xml version="1.0" standalone="no"?>
<!DOCTYPE svg PUBLIC "-//W3C//DTD SVG 20010904//EN"
 "http://www.w3.org/TR/2001/REC-SVG-20010904/DTD/svg10.dtd">
<svg version="1.0" xmlns="http://www.w3.org/2000/svg"
 width="728.000000pt" height="728.000000pt" viewBox="0 0 728.000000 728.000000"
 preserveAspectRatio="xMidYMid meet">
<metadata>
Created by potrace 1.14, written by Peter Selinger 2001-2017
</metadata>
<g transform="translate(0.000000,728.000000) scale(0.100000,-0.100000)"
fill="#000000" stroke="none">
<path d="M3419 7276 c-2 -2 -42 -7 -89 -10 -47 -4 -98 -9 -115 -11 -135 -17
-154 -19 -205 -30 -14 -3 -38 -8 -55 -11 -16 -3 -70 -14 -120 -25 -49 -12
-101 -23 -114 -25 -14 -3 -29 -8 -35 -12 -6 -3 -15 -7 -21 -8 -91 -15 -390
-123 -560 -203 -44 -21 -87 -41 -95 -45 -8 -3 -46 -24 -85 -46 -38 -22 -83
-46 -100 -55 -16 -9 -42 -23 -56 -33 -15 -9 -52 -32 -83 -50 -31 -19 -63 -40
-71 -48 -8 -9 -15 -13 -15 -9 0 4 -6 0 -14 -7 -7 -7 -24 -20 -36 -28 -12 -8
-37 -26 -55 -40 -18 -14 -45 -34 -61 -45 -223 -162 -500 -440 -691 -694 -40
-53 -76 -100 -81 -106 -4 -5 -22 -32 -39 -60 -18 -27 -36 -54 -41 -60 -32 -40
-225 -386 -231 -417 -1 -4 -20 -47 -42 -95 -22 -49 -44 -97 -49 -108 -13 -30
-61 -163 -64 -178 -2 -6 -6 -21 -10 -32 -19 -51 -56 -172 -59 -195 -2 -8 -6
-21 -10 -27 -5 -7 -6 -13 -3 -13 2 0 0 -15 -5 -32 -6 -18 -12 -42 -14 -53 -3
-11 -7 -31 -11 -45 -9 -42 -52 -292 -58 -345 -17 -141 -21 -230 -21 -440 1
-207 7 -349 20 -413 2 -13 7 -50 10 -83 4 -33 8 -68 10 -77 2 -9 15 -75 29
-147 76 -380 238 -803 425 -1114 28 -46 51 -88 51 -93 0 -4 4 -8 9 -8 5 0 13
-10 17 -22 3 -12 12 -28 18 -35 28 -32 36 -43 36 -51 0 -4 8 -17 18 -28 9 -10
29 -37 44 -59 15 -22 39 -53 53 -69 14 -16 25 -32 25 -35 0 -3 15 -22 33 -42
17 -20 46 -54 63 -75 93 -114 299 -320 421 -421 34 -28 68 -56 75 -62 57 -47
128 -101 133 -101 4 0 13 -6 20 -12 33 -30 45 -38 54 -38 5 0 11 -4 13 -8 3
-8 147 -105 158 -107 3 0 24 -13 48 -28 24 -15 55 -33 70 -40 15 -6 29 -14 32
-18 26 -30 500 -239 544 -239 9 0 16 -4 16 -10 0 -5 8 -10 18 -10 9 0 44 -10
77 -21 54 -18 187 -56 225 -64 8 -2 45 -10 83 -19 37 -9 79 -18 95 -20 154
-26 217 -36 272 -42 36 -4 79 -9 95 -11 63 -8 543 -10 610 -3 39 5 95 11 125
14 106 11 146 17 295 47 190 38 172 34 279 65 197 57 408 135 529 195 33 16
65 29 72 29 7 0 15 3 17 8 2 4 41 26 88 50 47 24 92 47 100 52 8 6 51 31 95
58 70 42 180 112 210 134 46 35 252 193 261 202 7 6 47 43 90 81 107 97 252
246 329 340 22 27 52 62 66 79 31 37 123 162 170 231 19 28 39 53 44 57 6 4 7
8 2 8 -4 0 8 21 26 47 18 27 36 55 40 63 4 8 23 42 42 75 42 71 128 236 131
250 1 6 18 44 37 85 34 73 106 256 111 282 2 7 6 20 9 28 8 20 57 180 63 202
2 10 6 26 8 35 22 91 39 162 42 183 3 14 7 32 9 40 2 8 7 38 11 65 3 28 8 52
9 55 2 3 6 37 10 75 4 39 9 72 10 75 25 42 26 705 1 835 -2 11 -7 47 -10 80
-10 80 -17 129 -21 135 -2 3 -6 26 -10 50 -14 103 -75 331 -132 500 -62 182
-204 501 -254 571 -10 14 -16 28 -13 31 2 3 -2 11 -11 18 -8 7 -15 19 -15 26
0 8 -4 14 -10 14 -5 0 -10 6 -10 13 -1 11 -66 117 -90 144 -5 7 -10 16 -10 20
0 4 -9 19 -20 33 -11 14 -47 63 -81 110 -34 47 -65 87 -69 90 -3 3 -13 15 -21
27 -68 99 -284 322 -483 498 -51 45 -207 165 -214 165 -6 0 -12 4 -14 8 -1 5
-32 29 -68 53 -36 24 -67 47 -68 51 -2 5 -8 6 -13 2 -5 -3 -9 0 -9 5 0 6 -7
11 -15 11 -8 0 -15 4 -15 9 0 5 -8 12 -17 15 -10 4 -36 18 -58 31 -22 14 -56
33 -75 42 -19 10 -37 21 -40 24 -11 13 -233 119 -360 171 -135 56 -304 116
-349 125 -14 2 -28 6 -33 9 -14 9 -162 47 -232 60 -16 2 -32 6 -35 8 -3 2 -24
7 -46 10 -22 4 -78 13 -125 21 -47 7 -114 17 -150 21 -36 4 -78 9 -95 11 -40
5 -542 13 -546 9z"/>
</g>
</svg>
