<?xml version="1.0" standalone="no"?>
<!DOCTYPE svg PUBLIC "-//W3C//DTD SVG 20010904//EN"
 "http://www.w3.org/TR/2001/REC-SVG-20010904/DTD/svg10.dtd">
<svg version="1.0" xmlns="http://www.w3.org/2000/svg"
 width="615.000000pt" height="615.000000pt" viewBox="0 0 615.000000 615.000000"
 preserveAspectRatio="xMidYMid meet">
<metadata>
Created by potrace 1.14, written by Peter Selinger 2001-2017
</metadata>
<g transform="translate(0.000000,615.000000) scale(0.100000,-0.100000)"
fill="#000000" stroke="none">
<path d="M2859 6145 c-2 -1 -34 -6 -70 -9 -37 -3 -95 -10 -130 -15 -35 -6 -84
-13 -109 -17 -25 -3 -49 -7 -55 -8 -5 -1 -26 -6 -45 -10 -141 -29 -415 -111
-509 -152 -88 -38 -102 -44 -109 -45 -12 -3 -275 -138 -314 -162 -20 -12 -58
-35 -85 -51 -26 -16 -50 -32 -53 -36 -3 -3 -23 -17 -45 -30 -22 -13 -42 -26
-45 -29 -3 -4 -43 -35 -90 -71 -104 -79 -111 -85 -166 -137 -24 -23 -44 -40
-44 -38 0 4 -103 -99 -176 -176 -62 -66 -214 -254 -251 -312 -16 -23 -34 -48
-40 -55 -7 -7 -13 -17 -13 -22 0 -5 -6 -15 -14 -22 -7 -8 -21 -27 -30 -43 -9
-17 -30 -52 -47 -80 -16 -27 -41 -74 -55 -102 -14 -29 -30 -55 -35 -58 -5 -4
-7 -11 -4 -16 4 -5 1 -9 -4 -9 -6 0 -11 -6 -11 -14 0 -7 -10 -33 -23 -57 -28
-54 -70 -156 -67 -165 1 -4 -2 -10 -7 -13 -21 -15 -123 -354 -148 -491 -3 -14
-7 -36 -10 -50 -9 -42 -13 -66 -21 -117 -3 -26 -8 -56 -10 -66 -19 -104 -26
-517 -12 -667 7 -71 23 -191 32 -235 2 -11 7 -40 11 -65 8 -46 12 -67 19 -98
43 -168 58 -221 84 -297 51 -153 81 -225 147 -360 58 -120 141 -273 154 -285
3 -3 15 -21 25 -40 25 -44 118 -174 128 -178 5 -2 8 -8 8 -13 0 -12 72 -101
164 -203 110 -122 212 -221 316 -306 30 -25 57 -47 60 -50 16 -18 130 -100
139 -100 6 0 11 -4 11 -9 0 -5 21 -22 48 -37 26 -15 49 -30 52 -33 9 -11 111
-71 121 -71 5 0 9 -3 9 -8 0 -4 15 -14 33 -21 17 -8 52 -27 77 -41 25 -15 48
-27 52 -29 4 -1 40 -17 80 -36 126 -58 428 -171 428 -159 0 3 8 0 18 -5 11 -6
30 -12 43 -14 13 -3 44 -10 69 -17 52 -14 60 -16 160 -35 41 -8 93 -17 115
-20 22 -2 49 -7 60 -9 99 -20 530 -28 690 -13 88 8 204 25 285 42 14 2 36 7
50 9 68 13 224 54 295 77 33 11 67 22 75 24 8 2 77 28 153 59 145 58 343 157
440 219 31 20 62 37 67 37 6 0 10 4 10 9 0 5 8 12 18 16 16 5 70 41 147 99 65
49 207 166 249 205 66 63 186 183 186 188 0 2 10 14 23 26 93 91 267 330 369
506 87 150 237 477 253 551 2 8 13 44 25 80 12 36 23 75 26 87 2 12 9 34 14
48 5 14 7 25 5 25 -2 0 0 11 5 25 10 27 11 32 33 145 19 96 32 185 46 315 9
91 7 475 -3 580 -9 83 -40 267 -62 362 -8 37 -17 79 -19 92 -2 13 -8 35 -14
50 -11 27 -30 101 -31 114 0 4 -7 21 -15 37 -8 16 -16 33 -16 37 -10 69 -220
524 -264 573 -8 9 -15 20 -15 24 0 6 -49 86 -60 96 -14 14 -50 70 -50 79 0 5
-3 11 -7 13 -5 2 -25 26 -45 53 -49 65 -42 57 -130 160 -79 95 -222 241 -296
303 -24 21 -54 47 -67 60 -13 12 -29 22 -35 22 -5 0 -10 4 -10 9 0 4 -19 21
-42 37 -24 16 -47 35 -51 41 -4 7 -14 13 -22 13 -7 0 -15 4 -17 8 -3 9 -183
132 -192 132 -3 0 -29 15 -58 33 -67 42 -233 126 -318 162 -36 14 -78 32 -95
40 -88 40 -397 132 -505 150 -19 3 -42 8 -50 10 -14 4 -31 7 -107 19 -16 3
-55 8 -88 12 -33 3 -69 8 -80 11 -23 5 -511 13 -516 8z"/>
</g>
</svg>
